/* XPM */
static char *openal[] = {
/* columns rows colors chars-per-pixel */
"82 44 161 2",
"   c opaque",
".  c #6d0000",
"X  c #6e0015",
"o  c #6e1515",
"O  c #721515",
"+  c #701c1c",
"@  c #731c22",
"#  c #742324",
"$  c #75272b",
"%  c #742c2c",
"&  c #7b272b",
"*  c #7c2b2d",
"=  c #762e32",
"-  c #763232",
";  c #773838",
":  c #793434",
">  c #7d3b3b",
",  c #7f3d40",
"<  c #7b403d",
"1  c #7d4141",
"2  c #7f4846",
"3  c #863538",
"4  c #83393c",
"5  c #804444",
"6  c #824648",
"7  c #804a44",
"8  c #834c4a",
"9  c #8b4245",
"0  c #8d4549",
"q  c #884b4d",
"w  c #85524c",
"e  c #865252",
"r  c #8a5453",
"t  c #8b5a55",
"y  c #8b5c5c",
"u  c #905456",
"i  c #905c57",
"p  c #965c5d",
"a  c #985f60",
"s  c #91625d",
"d  c #8f6260",
"f  c #956663",
"g  c #956a69",
"h  c #9c6366",
"j  c #996966",
"k  c #9b6c6b",
"l  c #98706e",
"z  c #9b7373",
"x  c #a06669",
"c  c #a16c6e",
"v  c #a27474",
"b  c #a37678",
"n  c #a57b77",
"m  c #a37b7b",
"M  c #ab7477",
"N  c #ad767a",
"B  c #ad7b7d",
"V  c #a97f81",
"C  c #b67f82",
"Z  c #a5807c",
"A  c #aa827a",
"S  c #dda415",
"D  c #dda41c",
"F  c #dea523",
"G  c #dea62c",
"H  c #dfa827",
"J  c #dfa82b",
"K  c #dfa732",
"L  c #dfa834",
"P  c #dfa938",
"I  c #e0aa2d",
"U  c #e0ac33",
"Y  c #e0ab3a",
"T  c #e3b23d",
"R  c #e0ad43",
"E  c #e1ae48",
"W  c #e1ae52",
"Q  c #e2b341",
"!  c #e3b44c",
"~  c #e5b94c",
"^  c #e2b253",
"/  c #e2b35b",
"(  c #e5ba57",
")  c #e5ba5a",
"_  c #e2b563",
"`  c #e4b769",
"'  c #e4b964",
"]  c #e5ba6c",
"[  c #e5bd73",
"{  c #e7c06b",
"}  c #e8c264",
"|  c #ebc86f",
" . c #e7c177",
".. c #e7c07b",
"X. c #e9c375",
"o. c #e9c47d",
"O. c #a58280",
"+. c #ab8282",
"@. c #ac8a82",
"#. c #ae8c89",
"$. c #b68583",
"%. c #b18b85",
"&. c #b08a89",
"*. c #ba868a",
"=. c #bc8e90",
"-. c #b29085",
";. c #b4928d",
":. c #b49090",
">. c #b99696",
",. c #b89798",
"<. c #be9f91",
"1. c #ba9b9a",
"2. c #c3979a",
"3. c #c3989b",
"4. c #c59ea0",
"5. c #c1a0a2",
"6. c #c9a2a3",
"7. c #cbafad",
"8. c #ccb4ad",
"9. c #cfb3b4",
"0. c #cfb8b3",
"q. c #d1aeb0",
"w. c #d3b3ad",
"e. c #d5b5b7",
"r. c #d6b7ba",
"t. c #d2b8b5",
"y. c #d7babb",
"u. c #d9bcbe",
"i. c #ddc7b3",
"p. c #dccab9",
"a. c #e8c584",
"s. c #e8c58b",
"d. c #eccd84",
"f. c #eac889",
"g. c #eacb93",
"h. c #ebce99",
"j. c #efd289",
"k. c #edd097",
"l. c #edd29b",
"z. c #f0d693",
"x. c #f0d79b",
"c. c #f0d99d",
"v. c #ecd2a3",
"b. c #eed6aa",
"n. c #e6d3bd",
"m. c #f1d9a0",
"M. c #f1dcad",
"N. c #f0dbb1",
"B. c #f1debe",
"V. c #f3e0b3",
"C. c #ddc2c3",
"Z. c #ddc9c4",
"A. c #e3cbc3",
"S. c #ead9d6",
"D. c #ecddda",
"F. c #ece1db",
"G. c #f3e1c1",
"H. c #f4e7cb",
"J. c #f5e8cd",
"K. c #f9f4ec",
"L. c None",
/* pixels */
"L.L.L.L.L.L.L.L.L.L.L.L.L.L.L.L.L.L.L.L.L.L.L.L.L.L.L.L.L.L.L.L.L.L.L.L.L.L.L.L.L.L.L.L.L.L.L.L.b.E E P E _ v.L.L.L.L.L.L.L.L.L.L.L.L.L.L.L.L.L.L.L.L.L.L.L.L.L.L.L.",
"L.L.L.L.L.L.L.L.L.L.L.L.L.L.L.L.L.L.L.L.L.L.L.L.L.L.L.L.L.L.L.L.L.L.L.L.L.L.L.L.L.L.L.L.L.L.L.v.E S S S S S R h.L.L.L.L.L.L.L.L.L.L.L.L.L.L.L.L.L.L.L.L.L.L.L.L.L.L.",
"L.L.L.L.L.L.L.L.L.L.L.L.L.L.L.L.L.L.L.L.L.L.L.L.L.L.L.L.L.L.L.L.L.L.L.L.L.L.L.L.L.L.L.L.L.L.L./ S P / E S S S / L.L.L.L.L.L.L.L.L.L.L.L.L.L.L.L.L.L.L.L.L.L.L.L.L.L.",
"L.L.L.L.L.L.L.L.L.L.L.L.L.L.L.L.L.L.L.L.L.L.L.L.L.L.L.L.L.L.L.L.L.L.L.L.L.L.L.L.K.J.H.k.c.L.l.J F s.L.! S S S F v.L.m.j.H.J.K.L.L.L.L.L.L.L.L.L.L.L.L.L.L.L.L.L.L.L.",
"L.L.L.L.L.L.L.L.L.L.L.L.L.L.L.L.L.L.L.L.L.L.L.L.L.L.L.L.L.L.L.L.L.L.L.L.L.L.l.E F W W P  .L.} S P L.L.! S S S S ! L. .P W W G E g.L.L.L.L.L.L.L.L.L.L.L.L.L.L.L.L.L.",
"L.L.L.L.L.L.L.L.L.L.L.L.L.L.L.L.L.L.L.L.L.L.L.L.L.L.L.L.L.L.L.L.L.L.L.L.L.L.L.N._ H S D a.L.E S G L.L.^ S S S S T L.X.J S F _ b.L.L.L.L.L.L.L.L.L.L.L.L.L.L.L.L.L.L.",
"L.L.L.L.L.L.L.L.L.L.L.L.L.L.L.L.L.L.L.L.L.L.L.L.L.L.L.L.L.L.L.L.L.L.L.L.L.L.L.L.L.[ E R H.L.Q S G L.L.! S S S S T L.K.P R ] L.L.L.L.L.L.L.L.L.L.L.L.L.L.L.L.L.L.L.L.",
"L.L.L.L.L.L.L.L.L.L.L.L.L.L.L.L.L.L.L.L.L.L.L.L.L.L.L.L.L.L.L.L.L.L.L.L.L.L.L.L.K.h.` / L.L.Q S J ' / / / W S S T L.L./ _ g.J.L.L.L.L.L.L.L.L.L.L.L.L.L.L.L.L.L.L.L.",
"L.L.L.L.L.L.L.L.L.L.L.L.L.L.L.L.L.L.L.L.L.L.L.L.L.L.L.L.L.L.L.L.L.L.L.L.L.N.a.W R H S J L.L.Q S I I D ] b.s.S S T L.L.J S F R _  .M.L.L.L.L.L.L.L.L.L.L.L.L.L.L.L.L.",
"L.L.L.L.L.L.L.L.L.L.L.L.L.L.L.L.L.L.L.L.L.L.L.L.L.L.L.L.L.L.L.L.L.L.L.L.L.V.' W L S S J L.L.Q S I a.[ ! R P S S T L.L.U S S P W ' M.L.L.L.L.L.L.L.L.L.L.L.L.L.L.L.L.",
"L.L.L.L.L.L.L.L.L.L.L.L.L.L.L.L.L.L.L.L.L.L.L.L.L.L.L.L.L.L.L.L.L.L.L.L.L.L.L.L.l. ./ W L.L.Q S I R R / [ [ S S T L.L.! / [ d.L.L.L.L.L.L.L.L.L.L.L.L.L.L.L.L.L.L.L.",
"L.L.L.L.L.L.L.L.L.L.L.L.L.L.L.L.L.L.L.L.L.L.L.L.L.L.L.L.L.L.L.L.L.L.L.L.L.L.L.L.L.a./ E L.L.Q S H R R ' s.[ S S T L.L.W W a.L.L.L.L.L.L.L.L.L.L.L.L.L.L.L.L.L.L.L.L.",
"L.L.L.L.L.L.L.L.L.L.L.L.L.L.L.L.L.L.L.L.L.L.L.L.L.L.L.L.L.L.L.L.L.L.L.L.L.L.L.J./ P S F f.L.Q S H ] [ ^ R P S S T L.v.G S U ` G.L.L.L.L.L.L.L.L.L.L.L.L.L.L.L.L.L.L.",
"L.L.L.L.L.L.L.L.L.L.L.L.L.L.L.L.L.L.L.L.L.L.L.L.L.L.L.L.L.L.L.L.L.L.L.L.L.L.l._ F D S S / L.Q S G U F ] b.h.S S T L.` S S D F / l.L.L.L.L.L.L.L.L.L.L.L.L.L.L.L.L.L.",
"L.L.L.L.L.L.L.L.L.L.L.L.L.L.L.L.L.L.L.L.L.L.L.L.L.L.L.L.L.L.L.L.L.L.L.L.L.L.m.} ~ U S v.G.L.Q S J / ^ / / ! S S T L.G.v.S U ~ } m.L.L.L.L.L.L.L.L.L.L.L.L.L.L.L.L.L.",
"L.L.L.L.L.L.L.L.L.L.L.L.L.L.L.L.L.L.L.L.L.L.L.L.L.L.L.L.L.L.L.L.L.L.L.L.L.L.L.L.L.L.L.L.L.L.Q S J L.L.^ S S S S T L.L.L.L.L.L.L.L.L.L.L.L.L.L.L.L.L.L.L.L.L.L.L.L.L.",
"L.L.L.L.4.y.L.L.L.L.L.L.L.L.L.5.A.L.L.L.L.L.L.L.L.F.3.S.L.L.L.L.L.L.L.L.p.6.J.L.L.L.L.k.x.c.) S U j.j.! S S S S ( z.x.z.L.L.L.L.L.w.q.L.L.L.L.L.3.C C C L.L.L.L.L.L.",
"L.0.y % # # 5 z L.L.L.y.e.m 1 # % w O.L.L.L.L.m e : $ : y A L.L.L.L.#.2 # $ - y 5.L.L.T ! ~ J S S F D I F F D S I ~ ! T L.L.D.s < $ # 2 z L.L.L.r + + + L.L.L.L.L.L.",
"Z.e . . . . . % z L.L.$ $ . . . . . % Z L.L.b + . . . . . # m L.L.z - . . . . . t ;.L.U E } Q S S S S P g.~ E S T } E U L.$.l . . . . . O g L.L.q . . . L.L.L.L.L.L.",
"e . . - : > . . - B L.. . . @ : 7 . . 1 8.L.q . . - > - . . > C.<.1 . . : , % . . t L.U E L.Q S S S S S P l.E S T L.E I L.k . . o 8 : . . # @.L.q . . . L.L.L.L.L.L.",
"7 . @ m L.u.2 . . f L.. . % Z L.$., . . r >.$ . # k L.;.7 . . k j . . e p.L.m % . 2 D.U E L.Q S S S S S S E / S T L.! I L.> . . g J.i.l . . e L.q . . . L.L.L.L.L.L.",
"% . 1 L.L.L.t . . > L.. . q L.L.L.2 . . z ;.. . 8 L.L.L.y . . . * . . q L.L.L.: . % *.U E L.Q S S S S P ' Y R S T L.E U L.5 . + 6.L.L.h . . & L.q . . . L.L.L.L.L.L.",
"@ . , L.L.L.h . . & L.. . y L.L.L.. . . z ,.. . * p p p p L.L.L.* . . t L.L.L.# . $ C U E L.Q S S S S S ^ H.E S T L.E U L.> . @ . . . M . . @ L.q . . . L.L.L.L.L.L.",
"@ . , L.L.L.p . . & L.. . y L.L.L.. . . z ,.. . . . . . . L.L.L.* . . u L.L.L.# . $ C U E L.Q S S S S S S _ E S T L.! U L.4 . . . . . . . . & L.q . . . L.L.L.L.L.L.",
"@ . , L.L.L.a . . & L.. . y L.L.L.. . . l ,.. . . . . . . L.L.L.* . . u L.L.L.# . $ C U E L.Q S S S S L J L W S T L.E I L.> . . . . . . . . @ L.q . . . L.L.L.L.L.L.",
"@ . , L.L.L.a . . & L.. . y L.L.L.. . . z ,.. . O * & * * L.L.L.* . . u L.L.L.# . $ C U E L.Q S S S S D [ L.! S T L.! I L.4 . + y d d y . . & L.q . . . L.L.L.L.L.L.",
"@ . : L.L.L.u . . : L.. . r L.L.L.8 . . z ,.. . 2 L.L.L.n 8 q q * . . u L.L.L.# . $ $.Y E L.Q S S S S S U ] ! S T L.E U L.> . @ L.L.L.N . . # L.q . . . L.L.L.j q q ",
"6 . # &.L.K.e . . f L.. . # v L.C.d . . g ;.+ . < 5.L.9.> . . m * . . u L.L.L.# . $ C U Q L.Q S S S S F F E / S T L.E U L.4 . @ L.L.L.N . . # L.q . . . L.L.1.; . > ",
"t . . % 6 q o . % %.L.. . . , q > o . % m L.w . . 1 6 e . . 8 t.3 . . u L.L.L.# . $ C U E L.Q S S S S U s.L.E S T L.E U L.4 . @ L.L.L.N . . . L.q . . > q 8 > . . 8 ",
"+.% . . . . . X r L.L.. . . . . . . o k L.L.#.- . . . . . : O.L.3 . . u L.L.L.# . $ C U E L.Q S S S S S P h.E S T L.E I L.> . @ L.L.L.N . . . L.q . . . . . . . > %.",
"L.V 8 # . . > f L.L.L.. . # # . . , z Z.L.L.L.m : O . O > m L.L.# . . u L.L.L.# . $ $.U E L.Q S S S S S S E ! S T L.! U L.4 . @ L.L.L.N . . . L.q . . . . . # q n L.",
"L.L.L.>.9 k 8.L.L.L.L.. . y %.9 Z 4.L.L.L.L.L.L.Z.&.4 &.n.L.L.L.u 3 3 c L.L.L.0 3 0 3.Q P L.' S S S S G  .! R S ) L.E U L.u 3 0 L.L.L.=.3 3 3 L.h 3 3 3 3 9 @.L.L.L.",
"L.L.L.L.L.L.L.L.L.L.L.. . y L.L.L.L.L.L.L.L.L.L.L.L.L.L.L.L.L.L.L.L.L.L.L.L.L.L.L.L.L.[ E L.b.I S S S S E [ D F h.L.E ` L.L.L.L.L.L.L.L.L.L.L.L.L.L.L.L.L.L.L.L.L.L.",
"L.L.L.L.L.L.L.L.L.L.L.. . y L.L.L.L.L.L.L.L.L.L.L.L.L.L.L.L.L.L.L.L.L.L.L.L.L.L.L.L.L.f.U o.L._ S S S S S S S / L.h.U s.L.L.L.L.L.L.L.L.L.L.L.L.L.L.L.L.L.L.L.L.L.L.",
"L.L.L.L.L.L.L.L.L.L.L.. . y L.L.L.L.L.L.L.L.L.L.L.L.L.L.L.L.L.L.L.L.L.L.L.L.L.L.L.L.L.K.E ` L.o.L S S S S S E f.L.] E K.L.L.L.L.L.L.L.L.L.L.L.L.L.L.L.L.L.L.L.L.L.L.",
"L.L.L.L.L.L.L.L.L.L.L.. . y L.L.L.L.L.L.L.L.L.L.L.L.L.L.L.L.L.L.L.L.L.L.L.L.L.L.L.L.L.L.[ U a.L.N.^ P S Y W v.L.] L [ L.L.L.L.L.L.L.L.L.L.L.L.L.L.L.L.L.L.L.L.L.L.L.",
"L.L.L.L.L.L.L.L.L.L.L.L.L.L.L.L.L.L.L.L.L.L.L.L.L.L.L.L.L.L.L.L.L.L.L.L.L.L.L.L.L.L.L.L.L./ Y [ L.L.L.L.L.L.L...P W L.L.L.L.L.L.L.L.L.L.L.L.L.L.L.L.L.L.L.L.L.L.L.L.",
"L.L.L.L.L.L.L.L.L.L.L.L.L.L.L.L.L.L.L.L.L.L.L.L.L.L.L.L.L.L.L.L.L.L.L.L.L.L.L.L.L.L.L.L.L.| _ Y _ s.J.L.J.s.^ L _ | L.L.L.L.L.L.L.L.L.L.L.L.L.L.L.L.L.L.L.L.L.L.L.L.",
"L.L.L.L.L.L.L.L.L.L.L.L.L.L.L.L.L.L.L.L.L.L.L.L.L.L.L.L.L.L.L.L.L.L.L.L.L.L.L.L.L.L.L.L.L.L.L.g.^ L L / P J W s.L.L.L.L.L.L.L.L.L.L.L.L.L.L.L.L.L.L.L.L.L.L.L.L.L.L.",
"L.L.L.L.L.L.L.L.L.L.L.L.L.L.L.L.L.L.L.L.L.L.L.L.L.L.L.L.L.L.L.L.L.L.L.L.L.L.L.L.L.L.L.L.L.L.L.L.L.h.{ S ' l.L.L.L.L.L.L.L.L.L.L.L.L.L.L.L.L.L.L.L.L.L.L.L.L.L.L.L.L.",
"L.L.L.L.L.L.L.L.L.L.L.L.L.L.L.L.L.L.L.L.L.L.L.L.L.L.L.L.L.L.L.L.L.L.L.L.L.L.L.L.L.L.L.L.L.L.L.L.L.L.L.L.L.L.L.L.L.L.L.L.L.L.L.L.L.L.L.L.L.L.L.L.L.L.L.L.L.L.L.L.L.L.",
"L.L.L.L.L.L.L.L.L.L.L.L.L.L.L.L.L.L.L.L.L.L.L.L.L.L.L.L.L.L.L.L.L.L.L.L.L.L.L.L.L.L.L.L.L.L.L.I S S S S S S S J L.L.L.L.L.L.L.L.L.L.L.L.L.L.L.L.L.L.L.L.L.L.L.L.L.L.",
"L.L.L.L.L.L.L.L.L.L.L.L.L.L.L.L.L.L.L.L.L.L.L.L.L.L.L.L.L.L.L.L.L.L.L.L.L.L.L.L.L.L.L.L.L.L.L.I S S S S S S S J L.L.L.L.L.L.L.L.L.L.L.L.L.L.L.L.L.L.L.L.L.L.L.L.L.L.",
"L.L.L.L.L.L.L.L.L.L.L.L.L.L.L.L.L.L.L.L.L.L.L.L.L.L.L.L.L.L.L.L.L.L.L.L.L.L.L.L.L.L.L.L.L.L.L.' _ _ _ _ _ _ _ ' L.L.L.L.L.L.L.L.L.L.L.L.L.L.L.L.L.L.L.L.L.L.L.L.L.L."
};
